<svg width="32" height="32" viewBox="0 0 32 32" fill="none" xmlns="http://www.w3.org/2000/svg">
<g clip-path="url(#clip0_161_2605)">
<path d="M8.88892 4.62207H24.8889V5.99985H8.88892V4.62207Z" fill="#979797"/>
<path d="M24.2502 8.49859H9.89972C9.70839 8.49588 9.51958 8.45444 9.34469 8.37678C9.1698 8.29912 9.01245 8.18684 8.88214 8.04671C8.75182 7.90659 8.65123 7.74152 8.58645 7.56146C8.52166 7.38141 8.49401 7.19009 8.50516 6.99906C8.50423 6.6189 8.64773 6.25257 8.90662 5.97418C9.16552 5.6958 9.52049 5.52614 9.89972 5.49953H24.2502C24.4491 5.49953 24.6398 5.42054 24.7804 5.27993C24.921 5.13932 25 4.94862 25 4.74977C25 4.55092 24.921 4.36021 24.7804 4.2196C24.6398 4.07899 24.4491 4 24.2502 4H9.89972C9.12266 4.02721 8.38653 4.35516 7.84661 4.91467C7.30668 5.47418 7.00515 6.22152 7.00563 6.99906C6.99812 7.12141 6.99812 7.2441 7.00563 7.36645C6.99841 7.42621 6.99841 7.48663 7.00563 7.54639V24.9934C7.00515 25.771 7.30668 26.5183 7.84661 27.0778C8.38653 27.6373 9.12266 27.9653 9.89972 27.9925H24.2502C24.4491 27.9925 24.6398 27.9135 24.7804 27.7729C24.921 27.6323 25 27.4416 25 27.2427V9.30084C25.0004 9.09686 24.9232 8.90037 24.7839 8.75134C24.6446 8.60231 24.4538 8.51194 24.2502 8.49859ZM23.5005 26.493H9.89972C9.52049 26.4663 9.16552 26.2967 8.90662 26.0183C8.64773 25.7399 8.50423 25.3736 8.50516 24.9934V9.66073C8.93147 9.89591 9.41306 10.0124 9.89972 9.99812H23.5005V26.493Z" fill="#0066FF"/>
<path d="M23.5005 26.493H9.89972C9.52049 26.4663 9.16552 26.2967 8.90662 26.0183C8.64773 25.7399 8.50423 25.3736 8.50516 24.9934V9.66073C8.93147 9.89591 9.41306 10.0124 9.89972 9.99812H23.5005V26.493Z" fill="#0066FF"/>
</g>
<defs>
<clipPath id="clip0_161_2605">
<rect width="32" height="32" fill="white"/>
</clipPath>
</defs>
</svg>