<svg width="32" height="32" viewBox="0 0 32 32" fill="none" xmlns="http://www.w3.org/2000/svg">
<path d="M16 4.80005L16.52 4.19205C16.3751 4.06811 16.1907 4 16 4C15.8093 4 15.6249 4.06811 15.48 4.19205L16 4.80005ZM4.8 14.4001L4.28 13.7921L4 14.0321V14.4001H4.8ZM12.8 27.2001V28.0001C13.0122 28.0001 13.2157 27.9158 13.3657 27.7657C13.5157 27.6157 13.6 27.4122 13.6 27.2001H12.8ZM19.2 27.2001H18.4C18.4 27.4122 18.4843 27.6157 18.6343 27.7657C18.7843 27.9158 18.9878 28.0001 19.2 28.0001V27.2001ZM27.2 14.4001H28V14.0321L27.72 13.7921L27.2 14.4001ZM6.4 28.0001H12.8V26.4001H12H6.4V28.0001ZM27.72 13.7921L16.52 4.19205L15.48 5.40805L16 5.85377L26.4 14.7681L26.68 15.0081L27.72 13.7921ZM15.48 4.19205L4.28 13.7921L5.32 15.0081L5.6 14.7681L16 5.85377L16.52 5.40805L15.48 4.19205ZM13.6 27.2001V22.4001H12V26.4001V27.2001H13.6ZM18.4 22.4001V27.2001H20V26.4001V22.4001H18.4ZM19.2 28.0001H25.6V26.4001H20H19.2V28.0001ZM28 25.6001V14.4001H26.4V14.7681V25.6001H28ZM4 14.4001V25.6001H5.6V14.7681V14.4001H4ZM16 20C16.6365 20 17.247 20.2529 17.6971 20.703C18.1471 21.1531 18.4 21.7635 18.4 22.4001H20C20 21.3392 19.5786 20.3218 18.8284 19.5716C18.0783 18.8215 17.0609 18.4001 16 18.4001V20ZM16 18.4001C14.9391 18.4001 13.9217 18.8215 13.1716 19.5716C12.4214 20.3218 12 21.3392 12 22.4001H13.6C13.6 21.7635 13.8529 21.1531 14.3029 20.703C14.753 20.2529 15.3635 20 16 20V18.4001ZM25.6 28.0001C26.2365 28.0001 26.847 27.7472 27.2971 27.2971C27.7471 26.847 28 26.2366 28 25.6001H26.4C26.4 25.8122 26.3157 26.0157 26.1657 26.1657C26.0157 26.3158 25.8122 26.4001 25.6 26.4001V28.0001ZM6.4 26.4001C6.18783 26.4001 5.98434 26.3158 5.83431 26.1657C5.68429 26.0157 5.6 25.8122 5.6 25.6001H4C4 26.2366 4.25286 26.847 4.70294 27.2971C5.15303 27.7472 5.76348 28.0001 6.4 28.0001V26.4001Z" fill="#B5AFAF"/>
</svg>