<svg width="32" height="32" viewBox="0 0 32 32" fill="none" xmlns="http://www.w3.org/2000/svg">
<path d="M24.7957 20.2468C24.2753 19.3504 23.5018 16.8141 23.5018 13.5013C23.5018 11.5118 22.7115 9.60384 21.3047 8.19708C19.8979 6.79031 17.9899 6 16.0005 6C14.011 6 12.103 6.79031 10.6963 8.19708C9.28949 9.60384 8.49917 11.5118 8.49917 13.5013C8.49917 16.815 7.72466 19.3504 7.20426 20.2468C7.07137 20.4747 7.00091 20.7336 7.00001 20.9974C6.9991 21.2612 7.06778 21.5206 7.1991 21.7494C7.33043 21.9782 7.51977 22.1684 7.74802 22.3006C7.97627 22.4329 8.23536 22.5027 8.49917 22.5028H12.3258C12.4988 23.3497 12.9591 24.1108 13.6287 24.6574C14.2983 25.204 15.1361 25.5025 16.0005 25.5025C16.8648 25.5025 17.7027 25.204 18.3723 24.6574C19.0418 24.1108 19.5021 23.3497 19.6752 22.5028H23.5018C23.7655 22.5025 24.0245 22.4326 24.2526 22.3003C24.4807 22.1679 24.6699 21.9778 24.8011 21.749C24.9323 21.5203 25.0009 21.2609 25 20.9972C24.999 20.7335 24.9286 20.4747 24.7957 20.2468ZM16.0005 24.0031C15.5352 24.003 15.0815 23.8586 14.7016 23.59C14.3218 23.3213 14.0346 22.9415 13.8795 22.5028H18.1215C17.9664 22.9415 17.6792 23.3213 17.2993 23.59C16.9195 23.8586 16.4657 24.003 16.0005 24.0031ZM8.49917 21.0026C9.22117 19.7611 9.99943 16.8844 9.99943 13.5013C9.99943 11.9097 10.6317 10.3833 11.7571 9.25792C12.8825 8.13251 14.4089 7.50026 16.0005 7.50026C17.592 7.50026 19.1184 8.13251 20.2438 9.25792C21.3693 10.3833 22.0015 11.9097 22.0015 13.5013C22.0015 16.8816 22.7779 19.7583 23.5018 21.0026H8.49917Z" fill="#B5AFAF"/>
</svg>