<svg width="32" height="32" viewBox="0 0 32 32" fill="none" xmlns="http://www.w3.org/2000/svg">
<path d="M23 18C23.7956 18 24.5587 18.3161 25.1213 18.8787C25.6839 19.4413 26 20.2044 26 21V21.715C26 25.292 21.79 28 16 28C10.21 28 6 25.433 6 21.715V21C6 20.2044 6.31607 19.4413 6.87868 18.8787C7.44129 18.3161 8.20435 18 9 18H23ZM23 19.5H9C8.62727 19.5 8.2679 19.6388 7.99189 19.8892C7.71589 20.1397 7.54303 20.484 7.507 20.855L7.5 21V21.715C7.5 24.389 10.889 26.5 16 26.5C20.926 26.5 24.355 24.395 24.496 21.876L24.5 21.715V21C24.5 20.6273 24.3612 20.2679 24.1108 19.9919C23.8603 19.7159 23.516 19.543 23.145 19.507L23 19.5ZM16 4C16.7879 4 17.5681 4.15519 18.2961 4.45672C19.0241 4.75825 19.6855 5.20021 20.2426 5.75736C20.7998 6.31451 21.2417 6.97595 21.5433 7.7039C21.8448 8.43185 22 9.21207 22 10C22 10.7879 21.8448 11.5681 21.5433 12.2961C21.2417 13.0241 20.7998 13.6855 20.2426 14.2426C19.6855 14.7998 19.0241 15.2417 18.2961 15.5433C17.5681 15.8448 16.7879 16 16 16C14.4087 16 12.8826 15.3679 11.7574 14.2426C10.6321 13.1174 10 11.5913 10 10C10 8.4087 10.6321 6.88258 11.7574 5.75736C12.8826 4.63214 14.4087 4 16 4ZM16 5.5C14.8065 5.5 13.6619 5.97411 12.818 6.81802C11.9741 7.66193 11.5 8.80653 11.5 10C11.5 11.1935 11.9741 12.3381 12.818 13.182C13.6619 14.0259 14.8065 14.5 16 14.5C17.1935 14.5 18.3381 14.0259 19.182 13.182C20.0259 12.3381 20.5 11.1935 20.5 10C20.5 8.80653 20.0259 7.66193 19.182 6.81802C18.3381 5.97411 17.1935 5.5 16 5.5Z" fill="#B5AFAF"/>
</svg>