<svg width="111" height="117" viewBox="0 0 111 117" fill="none" xmlns="http://www.w3.org/2000/svg">
<path d="M36.3408 40.4432L57.1782 28.3845C59.3648 27.0982 61.2942 26.9374 62.9664 27.9021C64.7028 28.8668 65.571 30.6354 65.571 33.208V94.9485L57.1782 99.7719V80.478L36.3408 92.5367V111.831L27.9479 116.654V54.9136C27.9479 53.1772 28.3338 51.3764 29.1055 49.5113C29.8773 47.5819 30.9063 45.8133 32.1926 44.2055C33.4788 42.5333 34.8616 41.2792 36.3408 40.4432ZM57.1782 70.8311V38.0314L36.3408 50.0901V82.8898L57.1782 70.8311ZM57.1782 80.478V99.7719L48.7853 94.9485V75.6546L57.1782 80.478ZM57.1782 38.0314V70.8311L48.7853 66.0076V33.208L57.1782 38.0314ZM57.1782 70.8311L36.3408 82.8898L27.9479 78.0663L48.7853 66.0076L57.1782 70.8311ZM63.0628 27.9021C61.3264 26.9374 59.3648 27.0982 57.1782 28.3845L36.3408 40.4432C34.8616 41.2792 33.4788 42.5333 32.1926 44.2055C30.9063 45.8133 29.8773 47.5819 29.1055 49.5113C28.3338 51.3764 27.9479 53.1772 27.9479 54.9136V116.654L19.5551 111.831V50.0901C19.5551 48.3537 19.9409 46.5529 20.7127 44.6878C21.4844 42.7584 22.5135 40.9898 23.7997 39.382C25.086 37.7099 26.4687 36.4558 27.9479 35.6197L48.7853 23.561C51.0363 22.2747 52.9978 22.114 54.67 23.0787L63.0628 27.9021Z" fill="#0066FF"/>
<path d="M109.945 16.2608V59.7102L104.607 62.8137V19.3643L109.945 16.2608ZM107.276 74.2968C106.158 74.9175 105.248 75.021 104.545 74.6072C103.841 74.1933 103.489 73.3657 103.489 72.1243C103.489 70.8829 103.841 69.6415 104.545 68.4001C105.248 67.1587 106.158 66.2276 107.276 65.6069C108.352 64.9862 109.241 64.8828 109.945 65.2966C110.648 65.7104 111 66.538 111 67.7794C111 69.0208 110.648 70.2622 109.945 71.5036C109.241 72.745 108.352 73.6761 107.276 74.2968ZM109.945 16.2608L104.607 19.3643L99.2064 16.2608L104.607 13.1572L109.945 16.2608ZM109.945 65.2966C109.241 64.8828 108.352 64.9862 107.276 65.6069C106.158 66.2276 105.248 67.1587 104.545 68.4001C103.841 69.6415 103.489 70.8829 103.489 72.1243C103.489 73.3657 103.841 74.1933 104.545 74.6072L99.2064 71.5036C98.503 71.0898 98.1512 70.2622 98.1512 69.0208C98.1512 67.7794 98.503 66.538 99.2064 65.2966C99.9099 64.0551 100.8 63.1241 101.875 62.5034C102.993 61.8827 103.903 61.7792 104.607 62.193L109.945 65.2966ZM104.607 19.3643V62.8137L99.2064 59.7102V16.2608L104.607 19.3643Z" fill="#0066FF"/>
<path d="M74.5458 18.8342L79.3774 15.8462L84.209 18.8342V83.9737L79.3774 87.5594L74.5458 83.9737V18.8342ZM81.9424 43.6657L94.8267 37.0149V46.2308L81.9424 52.8816V43.6657Z" fill="#0066FF"/>
<path d="M1.6813 29.0132C3.84614 29.6097 11.4086 32.6892 15.363 34.7745" stroke="#0066FF" stroke-width="2" stroke-linecap="round"/>
<path d="M21.8925 27.9431C20.7433 26.7456 15.7304 18.3543 13.3676 14.3083" stroke="#0066FF" stroke-width="2" stroke-linecap="round"/>
<path d="M29.826 20.8352L28.7685 6.60243" stroke="#0066FF" stroke-width="2" stroke-linecap="round"/>
</svg>
