<svg width="60" height="60" viewBox="0 0 60 60" fill="none" xmlns="http://www.w3.org/2000/svg">
<circle cx="30" cy="30" r="30" fill="#FF4E6B" fill-opacity="0.1"/>
<path d="M40.6668 25.6001H19.3335C19.0683 25.6001 18.8139 25.4947 18.6264 25.3072C18.4389 25.1197 18.3335 24.8653 18.3335 24.6001C18.3335 24.3349 18.4389 24.0805 18.6264 23.893C18.8139 23.7055 19.0683 23.6001 19.3335 23.6001H40.6668C40.932 23.6001 41.1864 23.7055 41.3739 23.893C41.5615 24.0805 41.6668 24.3349 41.6668 24.6001C41.6668 24.8653 41.5615 25.1197 41.3739 25.3072C41.1864 25.4947 40.932 25.6001 40.6668 25.6001Z" fill="#FF4E6B"/>
<path d="M35.9198 41.6667H24.0798C23.6573 41.6956 23.2332 41.6404 22.8322 41.5041C22.4312 41.3679 22.0612 41.1534 21.7437 40.8731C21.4262 40.5928 21.1675 40.2523 20.9826 39.8712C20.7976 39.4902 20.6902 39.0763 20.6665 38.6534V24.6667C20.6665 24.4015 20.7719 24.1472 20.9594 23.9596C21.1469 23.7721 21.4013 23.6667 21.6665 23.6667C21.9317 23.6667 22.1861 23.7721 22.3736 23.9596C22.5611 24.1472 22.6665 24.4015 22.6665 24.6667V38.6534C22.6665 39.2001 23.2932 39.6667 23.9998 39.6667H35.8398C36.5865 39.6667 37.1732 39.2001 37.1732 38.6534V24.6667C37.1732 24.3803 37.287 24.1056 37.4895 23.9031C37.692 23.7005 37.9667 23.5867 38.2532 23.5867C38.5396 23.5867 38.8143 23.7005 39.0168 23.9031C39.2194 24.1056 39.3332 24.3803 39.3332 24.6667V38.6534C39.3095 39.0763 39.202 39.4902 39.0171 39.8712C38.8322 40.2523 38.5735 40.5928 38.256 40.8731C37.9385 41.1534 37.5685 41.3679 37.1675 41.5041C36.7665 41.6404 36.3424 41.6956 35.9198 41.6667ZM36.0798 24.3334C35.948 24.3352 35.8172 24.3105 35.695 24.2609C35.5729 24.2113 35.462 24.1377 35.3687 24.0445C35.2755 23.9513 35.2019 23.8403 35.1523 23.7182C35.1027 23.5961 35.078 23.4652 35.0798 23.3334V21.3467C35.0798 20.8001 34.4398 20.3334 33.7465 20.3334H26.2932C25.5598 20.3334 24.9598 20.8001 24.9598 21.3467V23.3334C24.9598 23.5986 24.8545 23.853 24.6669 24.0405C24.4794 24.228 24.2251 24.3334 23.9598 24.3334C23.6946 24.3334 23.4403 24.228 23.2527 24.0405C23.0652 23.853 22.9598 23.5986 22.9598 23.3334V21.3467C23.0115 20.5085 23.3892 19.7237 24.0122 19.1605C24.6352 18.5973 25.454 18.3004 26.2932 18.3334H33.7065C34.5524 18.2896 35.3814 18.5817 36.0132 19.146C36.6449 19.7103 37.0282 20.5012 37.0798 21.3467V23.3334C37.0816 23.4658 37.057 23.5973 37.0076 23.7202C36.9581 23.843 36.8847 23.9549 36.7917 24.0491C36.6987 24.1434 36.5878 24.2183 36.4656 24.2694C36.3434 24.3204 36.2123 24.3467 36.0798 24.3467V24.3334Z" fill="#FF4E6B"/>
<path d="M27.6265 36.6665C27.3623 36.663 27.11 36.5565 26.9232 36.3698C26.7364 36.183 26.6299 35.9306 26.6265 35.6665V29.6265C26.6265 29.3612 26.7318 29.1069 26.9194 28.9194C27.1069 28.7318 27.3612 28.6265 27.6265 28.6265C27.8917 28.6265 28.146 28.7318 28.3336 28.9194C28.5211 29.1069 28.6265 29.3612 28.6265 29.6265V35.6531C28.6282 35.7856 28.6037 35.917 28.5542 36.0399C28.5047 36.1628 28.4314 36.2746 28.3383 36.3689C28.2453 36.4631 28.1345 36.538 28.0123 36.5891C27.89 36.6402 27.7589 36.6665 27.6265 36.6665ZM32.3731 36.6665C32.1079 36.6665 31.8536 36.5611 31.666 36.3736C31.4785 36.186 31.3731 35.9317 31.3731 35.6665V29.6265C31.3731 29.3612 31.4785 29.1069 31.666 28.9194C31.8536 28.7318 32.1079 28.6265 32.3731 28.6265C32.6383 28.6265 32.8927 28.7318 33.0802 28.9194C33.2678 29.1069 33.3731 29.3612 33.3731 29.6265V35.6531C33.3732 35.9196 33.2682 36.1753 33.0811 36.365C32.8939 36.5547 32.6396 36.663 32.3731 36.6665Z" fill="#FF4E6B"/>
</svg>