<svg width="20" height="20" viewBox="0 0 20 20" fill="none" xmlns="http://www.w3.org/2000/svg">
<g id="Group 1171274837">
<g id="Ellipse 13" filter="url(#filter0_ii_899_1047)">
<circle cx="10" cy="10" r="10" fill="#0066FF"/>
</g>
<g id="ph:check">
<g id="Vector">
<mask id="path-2-outside-1_899_1047" maskUnits="userSpaceOnUse" x="4.5" y="6" width="11" height="9" fill="black">
<rect fill="white" x="4.5" y="6" width="11" height="9"/>
<path d="M14.7655 7.64052L8.76552 13.6405C8.73069 13.6754 8.68934 13.703 8.64381 13.7219C8.59829 13.7408 8.54949 13.7505 8.50021 13.7505C8.45093 13.7505 8.40213 13.7408 8.35661 13.7219C8.31108 13.703 8.26972 13.6754 8.2349 13.6405L5.6099 11.0155C5.53953 10.9452 5.5 10.8497 5.5 10.7502C5.5 10.6507 5.53953 10.5553 5.6099 10.4849C5.68026 10.4145 5.7757 10.375 5.87521 10.375C5.97472 10.375 6.07016 10.4145 6.14052 10.4849L8.50021 12.8451L14.2349 7.1099C14.3053 7.03953 14.4007 7 14.5002 7C14.5997 7 14.6952 7.03953 14.7655 7.1099C14.8359 7.18026 14.8754 7.2757 14.8754 7.37521C14.8754 7.47472 14.8359 7.57016 14.7655 7.64052Z"/>
</mask>
<path d="M14.7655 7.64052L8.76552 13.6405C8.73069 13.6754 8.68934 13.703 8.64381 13.7219C8.59829 13.7408 8.54949 13.7505 8.50021 13.7505C8.45093 13.7505 8.40213 13.7408 8.35661 13.7219C8.31108 13.703 8.26972 13.6754 8.2349 13.6405L5.6099 11.0155C5.53953 10.9452 5.5 10.8497 5.5 10.7502C5.5 10.6507 5.53953 10.5553 5.6099 10.4849C5.68026 10.4145 5.7757 10.375 5.87521 10.375C5.97472 10.375 6.07016 10.4145 6.14052 10.4849L8.50021 12.8451L14.2349 7.1099C14.3053 7.03953 14.4007 7 14.5002 7C14.5997 7 14.6952 7.03953 14.7655 7.1099C14.8359 7.18026 14.8754 7.2757 14.8754 7.37521C14.8754 7.47472 14.8359 7.57016 14.7655 7.64052Z" fill="white"/>
<path d="M14.7655 7.64052L8.76552 13.6405C8.73069 13.6754 8.68934 13.703 8.64381 13.7219C8.59829 13.7408 8.54949 13.7505 8.50021 13.7505C8.45093 13.7505 8.40213 13.7408 8.35661 13.7219C8.31108 13.703 8.26972 13.6754 8.2349 13.6405L5.6099 11.0155C5.53953 10.9452 5.5 10.8497 5.5 10.7502C5.5 10.6507 5.53953 10.5553 5.6099 10.4849C5.68026 10.4145 5.7757 10.375 5.87521 10.375C5.97472 10.375 6.07016 10.4145 6.14052 10.4849L8.50021 12.8451L14.2349 7.1099C14.3053 7.03953 14.4007 7 14.5002 7C14.5997 7 14.6952 7.03953 14.7655 7.1099C14.8359 7.18026 14.8754 7.2757 14.8754 7.37521C14.8754 7.47472 14.8359 7.57016 14.7655 7.64052Z" stroke="white" stroke-width="0.6" mask="url(#path-2-outside-1_899_1047)"/>
</g>
</g>
</g>
<defs>
<filter id="filter0_ii_899_1047" x="0" y="-1" width="20" height="23" filterUnits="userSpaceOnUse" color-interpolation-filters="sRGB">
<feFlood flood-opacity="0" result="BackgroundImageFix"/>
<feBlend mode="normal" in="SourceGraphic" in2="BackgroundImageFix" result="shape"/>
<feColorMatrix in="SourceAlpha" type="matrix" values="0 0 0 0 0 0 0 0 0 0 0 0 0 0 0 0 0 0 127 0" result="hardAlpha"/>
<feOffset dy="2"/>
<feGaussianBlur stdDeviation="1.7"/>
<feComposite in2="hardAlpha" operator="arithmetic" k2="-1" k3="1"/>
<feColorMatrix type="matrix" values="0 0 0 0 0.6 0 0 0 0 0.76 0 0 0 0 1 0 0 0 1 0"/>
<feBlend mode="normal" in2="shape" result="effect1_innerShadow_899_1047"/>
<feColorMatrix in="SourceAlpha" type="matrix" values="0 0 0 0 0 0 0 0 0 0 0 0 0 0 0 0 0 0 127 0" result="hardAlpha"/>
<feOffset dy="-1"/>
<feGaussianBlur stdDeviation="2"/>
<feComposite in2="hardAlpha" operator="arithmetic" k2="-1" k3="1"/>
<feColorMatrix type="matrix" values="0 0 0 0 0 0 0 0 0 0.4 0 0 0 0 1 0 0 0 1 0"/>
<feBlend mode="normal" in2="effect1_innerShadow_899_1047" result="effect2_innerShadow_899_1047"/>
</filter>
</defs>
</svg>