<svg width="60" height="60" viewBox="0 0 60 60" fill="none" xmlns="http://www.w3.org/2000/svg">
<circle cx="30" cy="30" r="30" fill="#0066FF" fill-opacity="0.1"/>
<path d="M22.6667 18.9999C21.9653 18.9999 21 19.8399 21 21.4279V38.5732C21 40.1625 21.9653 41.0012 22.6667 41.0012H31.9947C32.2599 41.0012 32.5142 41.1066 32.7018 41.2941C32.8893 41.4816 32.9947 41.736 32.9947 42.0012C32.9947 42.2664 32.8893 42.5208 32.7018 42.7083C32.5142 42.8958 32.2599 43.0012 31.9947 43.0012H22.6667C20.4227 43.0012 19 40.7705 19 38.5732V21.4265C19 19.2292 20.4227 16.9985 22.6667 16.9985H32C32.2652 16.9985 32.5196 17.1039 32.7071 17.2914C32.8946 17.479 33 17.7333 33 17.9985C33 18.2638 32.8946 18.5181 32.7071 18.7056C32.5196 18.8932 32.2652 18.9985 32 18.9985L22.6667 18.9999Z" fill="#0066FF"/>
<path d="M36.0398 24.6264C35.8523 24.4392 35.5982 24.334 35.3332 24.334C35.0682 24.334 34.814 24.4392 34.6265 24.6264V28.9944H26.6665C26.4013 28.9944 26.1469 29.0998 25.9594 29.2873C25.7719 29.4749 25.6665 29.7292 25.6665 29.9944C25.6665 30.2597 25.7719 30.514 25.9594 30.7015C26.1469 30.8891 26.4013 30.9944 26.6665 30.9944H34.6265V35.3731C34.814 35.5604 35.0682 35.6656 35.3332 35.6656C35.5982 35.6656 35.8523 35.5604 36.0398 35.3731L40.7065 30.7064C40.7997 30.6134 40.8736 30.5028 40.9239 30.381C40.9743 30.2593 41.0001 30.1288 40.9998 29.9971V29.9944C40.9998 29.8482 40.9676 29.7038 40.9056 29.5713C40.8436 29.4388 40.7534 29.3216 40.6412 29.2278L36.0398 24.6264Z" fill="#0066FF"/>
</svg>