<svg width="24" height="24" viewBox="0 0 24 24" fill="none" xmlns="http://www.w3.org/2000/svg">
<path d="M4.49989 17.25C5.22177 16.0087 5.99989 13.1325 5.99989 9.75C5.99989 8.1587 6.63203 6.63258 7.75725 5.50736C8.88247 4.38214 10.4086 3.75 11.9999 3.75C13.5912 3.75 15.1173 4.38214 16.2425 5.50736C17.3678 6.63258 17.9999 8.1587 17.9999 9.75C17.9999 13.1297 18.7761 16.0059 19.4999 17.25H4.49989Z" fill="#0066FF"/>
<path d="M11.9999 20.25C11.5347 20.2499 11.081 20.1055 10.7013 19.8369C10.3215 19.5683 10.0343 19.1886 9.87927 18.75H14.1205C13.9655 19.1886 13.6783 19.5683 13.2985 19.8369C12.9188 20.1055 12.4651 20.2499 11.9999 20.25Z" fill="#0066FF"/>
</svg>