<svg width="24" height="24" viewBox="0 0 24 24" fill="none" xmlns="http://www.w3.org/2000/svg">
<g clip-path="url(#clip0_157_1654)">
<mask id="path-1-outside-1_157_1654" maskUnits="userSpaceOnUse" x="4" y="2" width="16" height="20" fill="black">
<rect fill="white" x="4" y="2" width="16" height="20"/>
<path d="M18.4168 6.4989H7.25534C7.10652 6.4968 6.95967 6.46457 6.82365 6.40416C6.68762 6.34376 6.56524 6.25643 6.46388 6.14744C6.36253 6.03846 6.28429 5.91007 6.2339 5.77003C6.18351 5.62998 6.162 5.48118 6.17068 5.3326C6.16996 5.03692 6.28156 4.752 6.48293 4.53548C6.68429 4.31895 6.96038 4.187 7.25534 4.1663H18.4168C18.5715 4.1663 18.7198 4.10486 18.8292 3.9955C18.9386 3.88614 19 3.73781 19 3.58315C19 3.42849 18.9386 3.28016 18.8292 3.1708C18.7198 3.06144 18.5715 3 18.4168 3H7.25534C6.65096 3.02117 6.07841 3.27624 5.65847 3.71141C5.23853 4.14659 5.00401 4.72785 5.00438 5.3326C4.99854 5.42776 4.99854 5.52319 5.00438 5.61835C4.99876 5.66483 4.99876 5.71182 5.00438 5.7583V19.3282C5.00401 19.933 5.23853 20.5142 5.65847 20.9494C6.07841 21.3846 6.65096 21.6397 7.25534 21.6608H18.4168C18.5715 21.6608 18.7198 21.5994 18.8292 21.49C18.9386 21.3807 19 21.2323 19 21.0777V7.12288C19.0003 6.96422 18.9402 6.8114 18.8319 6.69549C18.7236 6.57958 18.5752 6.50928 18.4168 6.4989ZM17.8337 20.4945H7.25534C6.96038 20.4738 6.68429 20.3419 6.48293 20.1253C6.28156 19.9088 6.16996 19.6239 6.17068 19.3282V7.40279C6.50225 7.5857 6.87682 7.67633 7.25534 7.66521H17.8337V20.4945Z"/>
</mask>
<path d="M18.4168 6.4989H7.25534C7.10652 6.4968 6.95967 6.46457 6.82365 6.40416C6.68762 6.34376 6.56524 6.25643 6.46388 6.14744C6.36253 6.03846 6.28429 5.91007 6.2339 5.77003C6.18351 5.62998 6.162 5.48118 6.17068 5.3326C6.16996 5.03692 6.28156 4.752 6.48293 4.53548C6.68429 4.31895 6.96038 4.187 7.25534 4.1663H18.4168C18.5715 4.1663 18.7198 4.10486 18.8292 3.9955C18.9386 3.88614 19 3.73781 19 3.58315C19 3.42849 18.9386 3.28016 18.8292 3.1708C18.7198 3.06144 18.5715 3 18.4168 3H7.25534C6.65096 3.02117 6.07841 3.27624 5.65847 3.71141C5.23853 4.14659 5.00401 4.72785 5.00438 5.3326C4.99854 5.42776 4.99854 5.52319 5.00438 5.61835C4.99876 5.66483 4.99876 5.71182 5.00438 5.7583V19.3282C5.00401 19.933 5.23853 20.5142 5.65847 20.9494C6.07841 21.3846 6.65096 21.6397 7.25534 21.6608H18.4168C18.5715 21.6608 18.7198 21.5994 18.8292 21.49C18.9386 21.3807 19 21.2323 19 21.0777V7.12288C19.0003 6.96422 18.9402 6.8114 18.8319 6.69549C18.7236 6.57958 18.5752 6.50928 18.4168 6.4989ZM17.8337 20.4945H7.25534C6.96038 20.4738 6.68429 20.3419 6.48293 20.1253C6.28156 19.9088 6.16996 19.6239 6.17068 19.3282V7.40279C6.50225 7.5857 6.87682 7.67633 7.25534 7.66521H17.8337V20.4945Z" fill="#1E1E1E"/>
<path d="M18.4168 6.4989H7.25534C7.10652 6.4968 6.95967 6.46457 6.82365 6.40416C6.68762 6.34376 6.56524 6.25643 6.46388 6.14744C6.36253 6.03846 6.28429 5.91007 6.2339 5.77003C6.18351 5.62998 6.162 5.48118 6.17068 5.3326C6.16996 5.03692 6.28156 4.752 6.48293 4.53548C6.68429 4.31895 6.96038 4.187 7.25534 4.1663H18.4168C18.5715 4.1663 18.7198 4.10486 18.8292 3.9955C18.9386 3.88614 19 3.73781 19 3.58315C19 3.42849 18.9386 3.28016 18.8292 3.1708C18.7198 3.06144 18.5715 3 18.4168 3H7.25534C6.65096 3.02117 6.07841 3.27624 5.65847 3.71141C5.23853 4.14659 5.00401 4.72785 5.00438 5.3326C4.99854 5.42776 4.99854 5.52319 5.00438 5.61835C4.99876 5.66483 4.99876 5.71182 5.00438 5.7583V19.3282C5.00401 19.933 5.23853 20.5142 5.65847 20.9494C6.07841 21.3846 6.65096 21.6397 7.25534 21.6608H18.4168C18.5715 21.6608 18.7198 21.5994 18.8292 21.49C18.9386 21.3807 19 21.2323 19 21.0777V7.12288C19.0003 6.96422 18.9402 6.8114 18.8319 6.69549C18.7236 6.57958 18.5752 6.50928 18.4168 6.4989ZM17.8337 20.4945H7.25534C6.96038 20.4738 6.68429 20.3419 6.48293 20.1253C6.28156 19.9088 6.16996 19.6239 6.17068 19.3282V7.40279C6.50225 7.5857 6.87682 7.67633 7.25534 7.66521H17.8337V20.4945Z" stroke="black" stroke-width="0.4" mask="url(#path-1-outside-1_157_1654)"/>
</g>
<defs>
<clipPath id="clip0_157_1654">
<rect width="24" height="24" fill="white"/>
</clipPath>
</defs>
</svg>