<svg width="14" height="14" viewBox="0 0 14 14" fill="none" xmlns="http://www.w3.org/2000/svg">
<path d="M7.00008 2.33317C9.57316 2.33317 11.6667 4.42675 11.6667 6.99984C11.6667 9.57292 9.57316 11.6665 7.00008 11.6665C4.427 11.6665 2.33341 9.57292 2.33341 6.99984C2.33341 4.42675 4.427 2.33317 7.00008 2.33317ZM7.00008 1.1665C3.77833 1.1665 1.16675 3.77809 1.16675 6.99984C1.16675 10.2216 3.77833 12.8332 7.00008 12.8332C10.2218 12.8332 12.8334 10.2216 12.8334 6.99984C12.8334 3.77809 10.2218 1.1665 7.00008 1.1665Z" fill="#6D6D6D"/>
<circle cx="7.00008" cy="9.62484" r="0.583333" fill="#6D6D6D"/>
<rect x="6.41675" y="3.5" width="1.16667" height="4.66667" fill="#6D6D6D"/>
</svg>