<svg width="32" height="32" viewBox="0 0 32 32" fill="none" xmlns="http://www.w3.org/2000/svg">
<g clip-path="url(#clip0_1249_855)">
<path fill-rule="evenodd" clip-rule="evenodd" d="M17.2734 1.19084C17.1062 1.02353 16.9077 0.890803 16.6892 0.800249C16.4708 0.709695 16.2366 0.663086 16.0001 0.663086C15.7635 0.663086 15.5294 0.709695 15.3109 0.800249C15.0924 0.890803 14.8939 1.02353 14.7267 1.19084L1.19206 14.7268C1.02475 14.894 0.892024 15.0925 0.80147 15.311C0.710916 15.5295 0.664307 15.7637 0.664307 16.0002C0.664307 16.2367 0.710916 16.4709 0.80147 16.6894C0.892024 16.9078 1.02475 17.1063 1.19206 17.2735L14.7267 30.8068C14.8939 30.9741 15.0924 31.1069 15.3109 31.1974C15.5294 31.288 15.7635 31.3346 16.0001 31.3346C16.2366 31.3346 16.4708 31.288 16.6892 31.1974C16.9077 31.1069 17.1062 30.9741 17.2734 30.8068L30.8081 17.2735C30.9754 17.1063 31.1081 16.9078 31.1986 16.6894C31.2892 16.4709 31.3358 16.2367 31.3358 16.0002C31.3358 15.7637 31.2892 15.5295 31.1986 15.311C31.1081 15.0925 30.9754 14.894 30.8081 14.7268L17.2734 1.19084ZM16.7067 22.0402C16.6127 22.1342 16.5009 22.2086 16.3779 22.259C16.2548 22.3093 16.1229 22.3346 15.9899 22.3334C15.857 22.3321 15.7256 22.3044 15.6034 22.2517C15.4813 22.1991 15.3709 22.1227 15.2787 22.0268L9.94539 16.4708C9.76151 16.2795 9.66115 16.023 9.6664 15.7577C9.67165 15.4924 9.78208 15.2401 9.97339 15.0562C10.1647 14.8723 10.4212 14.7719 10.6865 14.7772C10.9518 14.7824 11.2042 14.8929 11.3881 15.0842L15.0001 18.8482V9.3335C15.0001 9.06829 15.1054 8.81393 15.2929 8.6264C15.4805 8.43886 15.7348 8.3335 16.0001 8.3335C16.2653 8.3335 16.5196 8.43886 16.7072 8.6264C16.8947 8.81393 17.0001 9.06829 17.0001 9.3335V18.9202L20.6267 15.2935C20.7183 15.1953 20.8287 15.1164 20.9513 15.0618C21.074 15.0071 21.2064 14.9777 21.3407 14.9754C21.475 14.973 21.6083 14.9977 21.7329 15.048C21.8574 15.0983 21.9705 15.1732 22.0654 15.2681C22.1604 15.3631 22.2353 15.4762 22.2856 15.6007C22.3358 15.7252 22.3605 15.8586 22.3582 15.9929C22.3558 16.1271 22.3264 16.2596 22.2718 16.3822C22.2171 16.5049 22.1383 16.6153 22.0401 16.7068L16.7067 22.0402Z" fill="#0066FF"/>
</g>
<defs>
<clipPath id="clip0_1249_855">
<rect width="32" height="32" fill="white"/>
</clipPath>
</defs>
</svg>
