<svg width="18" height="18" viewBox="0 0 18 18" fill="none" xmlns="http://www.w3.org/2000/svg">
<g clip-path="url(#clip0_1249_637)">
<path d="M18 9C18 13.9705 13.9705 18 9 18C4.03 18 0 13.9705 0 9C0 4.03 4.03 0 9 0C13.9705 0 18 4.03 18 9Z" fill="#FFCC4D"/>
<path d="M5.75 10.25C6.44036 10.25 7 9.4665 7 8.5C7 7.5335 6.44036 6.75 5.75 6.75C5.05964 6.75 4.5 7.5335 4.5 8.5C4.5 9.4665 5.05964 10.25 5.75 10.25Z" fill="#664500"/>
<path d="M12.25 10.25C12.9404 10.25 13.5 9.4665 13.5 8.5C13.5 7.5335 12.9404 6.75 12.25 6.75C11.5596 6.75 11 7.5335 11 8.5C11 9.4665 11.5596 10.25 12.25 10.25Z" fill="#664500"/>
<path d="M2.9995 6.75C2.90669 6.74991 2.81573 6.72398 2.73682 6.67513C2.6579 6.62628 2.59414 6.55642 2.55268 6.47338C2.51121 6.39035 2.49367 6.29741 2.50203 6.20497C2.51039 6.11254 2.54431 6.02425 2.6 5.95C4.231 3.775 6.408 3.75 6.5 3.75C6.56566 3.74987 6.63071 3.76267 6.69142 3.78768C6.75213 3.81268 6.80732 3.8494 6.85385 3.89574C6.90037 3.94208 6.93731 3.99712 6.96256 4.05774C6.98781 4.11835 7.00087 4.18334 7.001 4.249C7.00113 4.31466 6.98833 4.37971 6.96332 4.44042C6.93832 4.50113 6.9016 4.55633 6.85526 4.60285C6.80892 4.64937 6.75388 4.68631 6.69327 4.71156C6.63265 4.73681 6.56766 4.74987 6.502 4.75C6.4245 4.751 4.718 4.793 3.4 6.55C3.35338 6.61217 3.2929 6.66261 3.22338 6.69733C3.15386 6.73204 3.07721 6.75008 2.9995 6.75ZM15.0005 6.75C14.9228 6.75008 14.8461 6.73204 14.7766 6.69733C14.7071 6.66261 14.6466 6.61217 14.6 6.55C13.2795 4.7895 11.5695 4.7505 11.497 4.75C11.3647 4.74881 11.2383 4.69527 11.1455 4.60109C11.0526 4.50691 11.0008 4.37977 11.0015 4.2475C11.0018 4.11546 11.0544 3.98893 11.1479 3.89565C11.2413 3.80238 11.368 3.75 11.5 3.75C11.592 3.75 13.7685 3.775 15.4 5.95C15.4557 6.02425 15.4896 6.11254 15.498 6.20497C15.5063 6.29741 15.4888 6.39035 15.4473 6.47338C15.4059 6.55642 15.3421 6.62628 15.2632 6.67513C15.1843 6.72398 15.0933 6.74991 15.0005 6.75ZM11.7425 14.1895C11.737 14.1675 11.17 12 9 12C6.83 12 6.263 14.1675 6.2575 14.1895C6.24539 14.2413 6.25011 14.2956 6.27097 14.3445C6.29184 14.3934 6.32775 14.4344 6.3735 14.4615C6.41999 14.4886 6.47384 14.5002 6.52737 14.4949C6.58089 14.4895 6.63134 14.4673 6.6715 14.4315C6.676 14.4275 7.178 14 9 14C10.795 14 11.3085 14.415 11.328 14.4315C11.3673 14.4687 11.4175 14.4922 11.4713 14.4984C11.525 14.5046 11.5793 14.4932 11.626 14.4659C11.6727 14.4386 11.7093 14.397 11.7303 14.3471C11.7513 14.2973 11.7556 14.242 11.7425 14.1895Z" fill="#664500"/>
<path d="M8 15.5C8 16.881 6.881 18 5.5 18C4.119 18 3 16.881 3 15.5C3 14.119 5 10.5 5.5 10.5C6 10.5 8 14.119 8 15.5Z" fill="#5DADEC"/>
</g>
<defs>
<clipPath id="clip0_1249_637">
<rect width="18" height="18" fill="white"/>
</clipPath>
</defs>
</svg>
