<svg width="15" height="15" viewBox="0 0 15 15" fill="none" xmlns="http://www.w3.org/2000/svg">
<circle cx="7.5" cy="7.5" r="6.9" fill="white" stroke="#838383" stroke-width="1.2"/>
<path d="M6.88816 9.26962L6.89426 9.31259H6.93767H7.82703H7.88301L7.87671 9.25696C7.80526 8.62656 8.14131 8.19712 8.5116 7.75692C8.52732 7.73824 8.5431 7.71953 8.55892 7.70079C8.91198 7.28234 9.28083 6.84517 9.28083 6.21957C9.28083 5.69322 9.102 5.27782 8.78804 4.99446C8.47477 4.71172 8.0323 4.56523 7.51314 4.56523C6.76316 4.56523 6.16611 4.92284 5.73166 5.41936L5.6996 5.456L5.73537 5.48902L6.30212 6.01218L6.33944 6.04662L6.3733 6.00878C6.66313 5.68485 7.008 5.49356 7.39978 5.49356C7.6632 5.49356 7.863 5.57898 7.99702 5.71804C8.13135 5.85742 8.20427 6.05555 8.20427 6.28933C8.20427 6.51057 8.11483 6.71213 7.97764 6.91604C7.88132 7.0592 7.76441 7.1996 7.64139 7.34733C7.58787 7.4116 7.53319 7.47727 7.47855 7.54515C7.12103 7.98931 6.7805 8.51149 6.88816 9.26962ZM6.6784 10.7187C6.6784 11.154 6.98645 11.475 7.39978 11.475C7.80398 11.475 8.12117 11.1544 8.12117 10.7187C8.12117 10.2738 7.80358 9.96244 7.39978 9.96244C6.98686 9.96244 6.6784 10.2743 6.6784 10.7187Z" fill="#838383" stroke="#838383" stroke-width="0.1"/>
</svg>