<svg width="40" height="40" viewBox="0 0 40 40" fill="none" xmlns="http://www.w3.org/2000/svg">
<path d="M22.7778 3.29438C22.0411 3.29438 21.3346 3.58704 20.8136 4.10797C20.2927 4.62891 20.0001 5.33544 20.0001 6.07216V6.07771L17.2223 0.516602C16.4856 0.516602 15.779 0.809259 15.2581 1.33019C14.7372 1.85113 14.4445 2.55767 14.4445 3.29438V4.72216L11.6667 3.0166C10.93 3.0166 10.2235 3.30926 9.70254 3.83019C9.1816 4.35113 8.88894 5.05767 8.88894 5.79438V9.72216L7.77783 19.9999H22.8245L22.7778 3.29438Z" fill="#EF9645"/>
<path d="M34.8611 18.0211C33.3267 17.3422 31.1345 18.2522 29.5833 20.4522C28.5645 21.8967 28.2645 23.9533 26.9267 24.1678C26.4156 24.2489 25.5556 23.82 25.5556 22.6156V5C25.5556 5 25.5556 2.77778 23.3333 2.77778C21.1111 2.77778 21.1111 5 21.1111 5V17.9256C21.1111 17.8933 20 17.8544 20 17.8344V2.22222C20 2.22222 20 0 17.7778 0C15.5556 0 15.5556 2.22222 15.5556 2.22222V17.8367C15.5556 17.8556 14.4445 17.8822 14.4445 17.9133V4.72222C14.4445 4.72222 14.4445 2.5 12.2222 2.5C10 2.5 10 4.72222 10 4.72222V18.7644C10 18.8956 8.8889 19.0433 8.8889 19.2067V9.72222C8.8889 9.72222 8.8889 7.5 6.66668 7.5C4.44446 7.5 4.44446 9.72222 4.44446 9.72222V26.6667C4.44446 34.03 10.4145 40 17.7778 40C23.0833 40 26.7333 37.1133 28.7733 34.12C30.5033 31.5811 31.0056 28.9444 31.1111 28.1478C31.1111 28.1478 31.2478 26.5044 32.3956 24.9644C33.4911 23.4836 34.6495 22.0505 35.8678 20.6689C36.22 20.2711 36.5622 18.7733 34.8611 18.0211Z" fill="#FFDC5D"/>
<path d="M26.0433 23.8568C25.7133 23.5612 25.63 23.2434 25.58 22.959C23.4777 23.2468 20.6277 23.8357 18.4389 25.9757C15.5989 28.7523 15.1144 31.7534 15.1377 33.7612C15.1566 35.3801 16.04 36.1468 16.2989 33.7479C16.6233 30.7412 18.8033 24.789 26.0589 24.2145C26.09 24.2123 26.4889 24.1879 26.7155 24.1757C26.7155 24.1757 26.3244 24.109 26.0433 23.8568Z" fill="#EF9645"/>
</svg>
