<svg width="18" height="16" viewBox="0 0 18 16" fill="none" xmlns="http://www.w3.org/2000/svg">
<path d="M10.165 13.3335C10.165 13.3335 10.864 13.3335 11.5631 14.6668C11.5631 14.6668 13.7839 11.3335 15.7572 10.6668M5.62133 10.6668H8.41744M5.62133 7.3335H11.2136M5.27181 2.3335C4.18412 2.36483 3.53612 2.48016 3.08735 2.90816C2.4729 3.49483 2.4729 4.43816 2.4729 6.3255V10.6628C2.4729 12.5508 2.4729 13.4942 3.08735 14.0808C3.70109 14.6668 4.69022 14.6668 6.66707 14.6668H8.41465M11.5575 2.3335C12.6452 2.36483 13.2939 2.48016 13.7419 2.90816C14.3571 3.49483 14.3571 4.43816 14.3571 6.3255V9.00016" stroke="#3C3C3C" stroke-width="1.5" stroke-linecap="round" stroke-linejoin="round"/>
<path d="M5.26904 2.50016C5.26904 1.85616 5.81708 1.3335 6.49234 1.3335H10.337C10.6614 1.3335 10.9726 1.45641 11.202 1.6752C11.4314 1.894 11.5603 2.19074 11.5603 2.50016C11.5603 2.80958 11.4314 3.10633 11.202 3.32512C10.9726 3.54391 10.6614 3.66683 10.337 3.66683H6.49234C6.1679 3.66683 5.85675 3.54391 5.62734 3.32512C5.39793 3.10633 5.26904 2.80958 5.26904 2.50016Z" stroke="#3C3C3C" stroke-width="1.5" stroke-linecap="round" stroke-linejoin="round"/>
</svg>
