<svg width="16" height="16" viewBox="0 0 16 16" fill="none" xmlns="http://www.w3.org/2000/svg">
<path d="M7.06512 5.57592L7.0651 5.5759C6.98941 5.5286 6.90244 5.50242 6.81322 5.50007C6.724 5.49773 6.63578 5.51931 6.55771 5.56258C6.47965 5.60585 6.41459 5.66922 6.36929 5.74612C6.32399 5.82302 6.3001 5.91065 6.3001 5.9999V10.1199C6.3001 10.1199 6.3001 10.1199 6.3001 10.1199C6.30009 10.2103 6.32456 10.2989 6.37093 10.3765C6.41729 10.4541 6.48382 10.5176 6.56342 10.5604C6.64302 10.6032 6.73273 10.6236 6.82301 10.6194C6.91328 10.6153 7.00074 10.5868 7.0761 10.5369L7.07611 10.5369L10.2761 8.41768L10.2761 8.41766C10.3458 8.3715 10.4028 8.30863 10.4418 8.23478C10.4809 8.16094 10.5009 8.07848 10.4999 7.99493C10.4989 7.91139 10.477 7.82943 10.4361 7.75654C10.3953 7.68364 10.3369 7.62214 10.2661 7.57766L10.2659 7.57752L7.06512 5.57592ZM3.6001 2.2999C3.04314 2.2999 2.509 2.52115 2.11517 2.91498C1.72135 3.3088 1.5001 3.84295 1.5001 4.3999V11.5999C1.5001 12.1569 1.72135 12.691 2.11517 13.0848C2.509 13.4787 3.04314 13.6999 3.6001 13.6999H12.4001C12.9571 13.6999 13.4912 13.4787 13.885 13.0848C14.2788 12.691 14.5001 12.1569 14.5001 11.5999V4.3999C14.5001 3.84295 14.2788 3.3088 13.885 2.91498C13.4912 2.52115 12.9571 2.2999 12.4001 2.2999H3.6001ZM2.5001 4.3999C2.5001 4.10816 2.61599 3.82837 2.82228 3.62208C3.02857 3.41579 3.30836 3.2999 3.6001 3.2999H12.4001C12.6918 3.2999 12.9716 3.41579 13.1779 3.62208C13.3842 3.82837 13.5001 4.10816 13.5001 4.3999V11.5999C13.5001 11.8916 13.3842 12.1714 13.1779 12.3777C12.9716 12.584 12.6918 12.6999 12.4001 12.6999H3.6001C3.30836 12.6999 3.02857 12.584 2.82228 12.3777C2.61599 12.1714 2.5001 11.8916 2.5001 11.5999V4.3999Z" fill="#1E1E1E" stroke="#1E1E1E" stroke-width="0.2"/>
</svg>
