<svg width="16" height="16" viewBox="0 0 16 16" fill="none" xmlns="http://www.w3.org/2000/svg">
<g clip-path="url(#clip0_157_1448)">
<path fill-rule="evenodd" clip-rule="evenodd" d="M4.78009 3.27985C4.91257 3.13767 4.98469 2.94963 4.98127 2.75532C4.97784 2.56102 4.89913 2.37564 4.76171 2.23822C4.6243 2.10081 4.43891 2.0221 4.24461 2.01867C4.05031 2.01524 3.86227 2.08737 3.72009 2.21985L1.75009 4.18985L1.28009 3.71985C1.13792 3.58737 0.949869 3.51524 0.755568 3.51867C0.561267 3.5221 0.375882 3.60081 0.238469 3.73822C0.101056 3.87564 0.0223439 4.06102 0.0189157 4.25532C0.0154875 4.44963 0.0876107 4.63767 0.220091 4.77985L1.22009 5.77985C1.36072 5.9203 1.55134 5.99919 1.75009 5.99919C1.94884 5.99919 2.13947 5.9203 2.28009 5.77985L4.78009 3.27985ZM6.00009 3.74985C6.00009 3.55093 6.07911 3.36017 6.21976 3.21952C6.36041 3.07886 6.55118 2.99985 6.75009 2.99985H15.2501C15.449 2.99985 15.6398 3.07886 15.7804 3.21952C15.9211 3.36017 16.0001 3.55093 16.0001 3.74985C16.0001 3.94876 15.9211 4.13952 15.7804 4.28018C15.6398 4.42083 15.449 4.49985 15.2501 4.49985H6.75009C6.55118 4.49985 6.36041 4.42083 6.21976 4.28018C6.07911 4.13952 6.00009 3.94876 6.00009 3.74985ZM6.00009 7.99985C6.00009 7.80093 6.07911 7.61017 6.21976 7.46952C6.36041 7.32886 6.55118 7.24985 6.75009 7.24985H15.2501C15.449 7.24985 15.6398 7.32886 15.7804 7.46952C15.9211 7.61017 16.0001 7.80093 16.0001 7.99985C16.0001 8.19876 15.9211 8.38952 15.7804 8.53018C15.6398 8.67083 15.449 8.74985 15.2501 8.74985H6.75009C6.55118 8.74985 6.36041 8.67083 6.21976 8.53018C6.07911 8.38952 6.00009 8.19876 6.00009 7.99985ZM6.75009 11.4998C6.55118 11.4998 6.36041 11.5789 6.21976 11.7195C6.07911 11.8602 6.00009 12.0509 6.00009 12.2498C6.00009 12.4488 6.07911 12.6395 6.21976 12.7802C6.36041 12.9208 6.55118 12.9998 6.75009 12.9998H15.2501C15.449 12.9998 15.6398 12.9208 15.7804 12.7802C15.9211 12.6395 16.0001 12.4488 16.0001 12.2498C16.0001 12.0509 15.9211 11.8602 15.7804 11.7195C15.6398 11.5789 15.449 11.4998 15.2501 11.4998H6.75009Z" fill="#1E1E1E"/>
</g>
<defs>
<clipPath id="clip0_157_1448">
<rect width="16" height="16" fill="white"/>
</clipPath>
</defs>
</svg>