<svg width="8" height="14" viewBox="0 0 8 14" fill="none" xmlns="http://www.w3.org/2000/svg">
<path fill-rule="evenodd" clip-rule="evenodd" d="M1.64237 0.726204L7.43677 6.531C7.48892 6.58084 7.53031 6.64085 7.55838 6.7073C7.58645 6.77376 7.60061 6.84526 7.59997 6.9174C7.60029 6.99116 7.58604 7.06425 7.55803 7.13248C7.53002 7.20072 7.48881 7.26274 7.43677 7.315C5.34077 9.3598 3.32077 11.3334 1.37677 13.2358C1.27677 13.3294 0.876768 13.5622 0.567968 13.2166C0.259168 12.8702 0.446368 12.5686 0.567968 12.4438L6.22237 6.9174L0.824768 1.5102C0.627968 1.23874 0.643968 0.988337 0.872768 0.759004C1.1021 0.52967 1.35863 0.518204 1.64237 0.726204Z" fill="#979797"/>
</svg>