<svg width="28" height="29" viewBox="0 0 28 29" fill="none" xmlns="http://www.w3.org/2000/svg">
<mask id="mask0_705_66" style="mask-type:luminance" maskUnits="userSpaceOnUse" x="0" y="0" width="28" height="29">
<rect y="0.758789" width="28" height="28" fill="white"/>
</mask>
<g mask="url(#mask0_705_66)">
<path d="M17.9622 25.2051L8.24967 15.5218C8.15245 15.4246 8.07973 15.3126 8.03151 15.1858C7.98251 15.0598 7.95801 14.9288 7.95801 14.7926C7.95801 14.6565 7.98251 14.5251 8.03151 14.3983C8.07973 14.2723 8.15245 14.1607 8.24967 14.0635L17.9622 4.35098C18.1955 4.11764 18.4677 4.00098 18.7788 4.00098C19.09 4.00098 19.3719 4.12737 19.6247 4.38014C19.858 4.59403 19.9747 4.8612 19.9747 5.18164C19.9747 5.50287 19.858 5.78014 19.6247 6.01348L10.8163 14.7926L19.6247 23.601C19.8386 23.8149 19.9455 24.0774 19.9455 24.3885C19.9455 24.6996 19.8288 24.9718 19.5955 25.2051C19.3622 25.4385 19.09 25.5551 18.7788 25.5551C18.4677 25.5551 18.1955 25.4385 17.9622 25.2051Z" fill="#6D6D6D"/>
</g>
</svg>