<svg width="24" height="24" viewBox="0 0 24 24" fill="none" xmlns="http://www.w3.org/2000/svg">
<path fill-rule="evenodd" clip-rule="evenodd" d="M8.46337 2.58955L17.155 11.2967C17.2332 11.3715 17.2953 11.4615 17.3374 11.5612C17.3795 11.6609 17.4007 11.7681 17.3998 11.8764C17.4002 11.987 17.3789 12.0966 17.3369 12.199C17.2949 12.3013 17.233 12.3944 17.155 12.4728C14.011 15.54 10.981 18.5004 8.06497 21.354C7.91497 21.4944 7.31497 21.8436 6.85177 21.3252C6.38857 20.8056 6.66937 20.3532 6.85177 20.166L15.3334 11.8764L7.23697 3.76555C6.94177 3.35835 6.96577 2.98275 7.30897 2.63875C7.65297 2.29475 8.03777 2.27755 8.46337 2.58955Z" fill="#3C3C3C"/>
</svg>