<svg width="18" height="15" viewBox="0 0 18 15" fill="none" xmlns="http://www.w3.org/2000/svg">
<path d="M13.4404 0.000175476C16.0004 0.000175476 17.3604 1.96018 17.3604 5.44018C17.3604 9.52018 15.3604 12.6002 11.3204 14.6802L9.96035 12.0402C12.6004 10.6802 13.8804 8.96018 13.8804 6.28017L13.6004 2.60017L15.7604 5.48018C15.0804 6.00018 14.3204 6.40018 13.4404 6.40018C11.7204 6.40018 10.2804 5.24018 10.2804 3.36018C10.2804 1.28018 11.6004 0.000175476 13.4404 0.000175476ZM3.48035 0.000175476C6.00035 0.000175476 7.36035 1.96018 7.36035 5.44018C7.36035 9.52018 5.36035 12.6002 1.32035 14.6802L0.000350952 12.0402C2.60035 10.6802 3.88035 8.96018 3.88035 6.28017L3.64035 2.60017L5.76035 5.48018C5.08035 6.00018 4.32035 6.40018 3.48035 6.40018C1.76035 6.40018 0.280352 5.24018 0.280352 3.36018C0.280352 1.28018 1.60035 0.000175476 3.48035 0.000175476Z" fill="#0066FF"/>
</svg>