<svg width="51" height="54" viewBox="0 0 51 54" fill="none" xmlns="http://www.w3.org/2000/svg">
<path d="M17.0641 18.3829L26.5356 12.9016C27.5296 12.317 28.4066 12.2439 29.1666 12.6824C29.9559 13.1209 30.3506 13.9248 30.3506 15.0941V43.158L26.5356 45.3505V36.5805L17.0641 42.0618V50.8317L13.2491 53.0242V24.9603C13.2491 24.171 13.4245 23.3525 13.7753 22.5047C14.1261 21.6277 14.5939 20.8238 15.1785 20.093C15.7632 19.3329 16.3917 18.7629 17.0641 18.3829ZM26.5356 32.1955V17.2866L17.0641 22.7678V37.6768L26.5356 32.1955ZM26.5356 36.5805V45.3505L22.7207 43.158V34.388L26.5356 36.5805ZM26.5356 17.2866V32.1955L22.7207 30.0031V15.0941L26.5356 17.2866ZM26.5356 32.1955L17.0641 37.6768L13.2491 35.4843L22.7207 30.0031L26.5356 32.1955ZM29.2105 12.6824C28.4212 12.2439 27.5296 12.317 26.5356 12.9016L17.0641 18.3829C16.3917 18.7629 15.7632 19.3329 15.1785 20.093C14.5939 20.8238 14.1261 21.6277 13.7753 22.5047C13.4245 23.3525 13.2491 24.171 13.2491 24.9603V53.0242L9.4342 50.8317V22.7678C9.4342 21.9785 9.6096 21.16 9.9604 20.3123C10.3112 19.4353 10.7789 18.6313 11.3636 17.9005C11.9483 17.1405 12.5768 16.5704 13.2491 16.1904L22.7207 10.7091C23.7439 10.1245 24.6355 10.0514 25.3955 10.4899L29.2105 12.6824Z" fill="#0066FF"/>
<path d="M50.5203 7.39117V27.1409L48.0939 28.5516V8.80186L50.5203 7.39117ZM49.3071 33.7712C48.7993 34.0533 48.3855 34.1003 48.0657 33.9123C47.7459 33.7242 47.5861 33.348 47.5861 32.7837C47.5861 32.2194 47.7459 31.6551 48.0657 31.0909C48.3855 30.5266 48.7993 30.1034 49.3071 29.8212C49.7962 29.5391 50.2006 29.4921 50.5203 29.6802C50.8401 29.8683 50.9999 30.2444 50.9999 30.8087C50.9999 31.373 50.8401 31.9373 50.5203 32.5016C50.2006 33.0658 49.7962 33.489 49.3071 33.7712ZM50.5203 7.39117L48.0939 8.80186L45.6393 7.39117L48.0939 5.98047L50.5203 7.39117ZM50.5203 29.6802C50.2006 29.4921 49.7962 29.5391 49.3071 29.8212C48.7993 30.1034 48.3855 30.5266 48.0657 31.0909C47.7459 31.6551 47.5861 32.2194 47.5861 32.7837C47.5861 33.348 47.7459 33.7242 48.0657 33.9123L45.6393 32.5016C45.3195 32.3135 45.1597 31.9373 45.1597 31.373C45.1597 30.8087 45.3195 30.2444 45.6393 29.6802C45.9591 29.1159 46.3635 28.6927 46.8525 28.4105C47.3604 28.1284 47.7742 28.0814 48.0939 28.2695L50.5203 29.6802ZM48.0939 8.80186V28.5516L45.6393 27.1409V7.39117L48.0939 8.80186Z" fill="#0066FF"/>
<path d="M34.4299 8.56084L36.6261 7.20264L38.8223 8.56084V38.1697L36.6261 39.7995L34.4299 38.1697V8.56084ZM37.792 19.8479L43.6485 16.8248V21.0138L37.792 24.0369V19.8479Z" fill="#0066FF"/>
<path d="M1.30972 13.1879C2.29373 13.459 5.7312 14.8588 7.52865 15.8067" stroke="#0066FF" stroke-width="2" stroke-linecap="round"/>
<path d="M10.4965 12.7016C9.97419 12.1573 7.6956 8.34309 6.6216 6.50401" stroke="#0066FF" stroke-width="2" stroke-linecap="round"/>
<path d="M14.1027 9.4707L13.622 3.00128" stroke="#0066FF" stroke-width="2" stroke-linecap="round"/>
</svg>